<?xml version="1.0" encoding="UTF-8" standalone="no"?>
<svg
   xmlns:dc="http://purl.org/dc/elements/1.1/"
   xmlns:cc="http://creativecommons.org/ns#"
   xmlns:rdf="http://www.w3.org/1999/02/22-rdf-syntax-ns#"
   xmlns:svg="http://www.w3.org/2000/svg"
   xmlns="http://www.w3.org/2000/svg"
   viewBox="0 0 276.8089 46.519177"
   height="46.519176"
   width="276.8089"
   xml:space="preserve"
   id="svg2"
   version="1.1"><metadata
     id="metadata8"><rdf:RDF><cc:Work
         rdf:about=""><dc:format>image/svg+xml</dc:format><dc:type
           rdf:resource="http://purl.org/dc/dcmitype/StillImage" /><dc:title></dc:title></cc:Work></rdf:RDF></metadata><defs
     id="defs6" /><g
     transform="matrix(1.3333333,0,0,-1.3333333,-333.15692,271.58386)"
     id="g10"><g
       transform="scale(0.1)"
       id="g12"><path
         id="path40-2"
         style="fill:#231f20;fill-opacity:1;fill-rule:nonzero;stroke:none;stroke-width:0.99999994"
         d="m 2772.3954,1417.5223 c 0.56,-4.09 0.84,-9.71 2.13,-15.07 12.33,-51.07 42.26,-87.68 86.18,-112.48 5.14,-2.9 11.07,-4.61 16.84,-5.89 23.91,-5.3301 38.28,9.68 33.54,34.65 -3.59,18.91 -13.26,34.34 -25.77,47.95 -28.62,31.13 -63.98,50.9 -102.63,64.95 -1.12,0.41 -2.27,0.7299 -3.42,1.02 -3.6,0.89 -5.74,-0.7401 -6.23,-4.4 -0.41,-3.05 -0.39,-6.16 -0.64,-10.73 z m -105.22,62.01 c 29.03,-1.01 55.67,-3.88 81.66,-11.24 6.23,-1.77 9.89,-1.02 12.91,5.33 15.99,33.67 43.44,53.46 75.96,66.78 43.62,17.85 89.26,21.46 135.34,18.55 160.8,-10.19 307.2399,-64.49 440.4399,-158.1 37.0601,-26.04 71.2101,-56.12 104.9001,-86.67 7.59,-6.89 14.0499,-15.15 20.78,-23.01 1.84,-2.14 4.63,-5.3401 2.55,-8.0701 -2.84,-3.7099 -5.03,0.69 -7.04,2.2001 -27.03,20.35 -53.49,41.57 -81.0201,61.14 -101.4799,72.15 -209.1199,130.83 -329.2999,162.12 -65.15,16.97 -130.93,26.34 -198.14,22.16 -32.36,-2 -63.65,-9.4 -93.49,-22.64 -19.55,-8.68 -36.38,-21.18 -47.55,-40.65 -4.2,-7.31 -3.78,-9.41 3.75,-12.47 21.14,-8.6 41.5,-18.77 60.71,-31.37 20.25,-13.29 39.07,-28.41 54.9,-47.26 11.89,-14.18 21.21,-29.83 26.02,-48.22 1.91,-7.3 2.65,-14.64 2.3,-22.09 -1.04,-22.36 -16.1,-39.97 -37.32,-43.3801 -10.71,-1.7199 -21.39,-0.99 -31.81,2.4 -8.58,2.7801 -16.71,6.6201 -24.26,11.67 -32.86,21.9601 -58.12,51.1901 -75.37,87.5801 -9.61,20.26 -14.53,41.96 -13.74,64.75 0.35,10.15 -0.43,12.39 -11.28,14.57 -49.18,9.86 -98.25,10.2 -147.3101,-0.36 -11.1,-2.39 -21.65,-6.69 -31.94,-11.7 -34.05,-16.58 -41.02,-47.34 -37.18,-75.03 6.55,-47.18 46.68,-87.6401 92.0101,-93.6 14.04,-1.8401 27.38,0.85 39.69,7.9699 20.11,11.6301 20.75,34.6901 1.47,47.7701 -2.97,2.01 -6.26,3.62 -9.59,4.91 -6.75,2.63 -8.73,1.38 -10.84,-6.19 -4.23,-15.2 -16.36,-19.83 -28.56,-10.9 -9.3701,6.87 -14.2501,18.71 -11.9801,29.08 2.3,10.54 10.9801,17.51 23.7601,19.1 27.9,3.48 63.2,-19.94 71.93,-47.7 8.03,-25.5101 -1.54,-47.5001 -25.41,-57.5201 -12.9,-5.4099 -26.4,-7.5499 -40.29,-5.64 -33.4701,4.59 -62.8601,18.54 -87.7701,42.27 -19.05,18.1401 -31.6,40.3701 -35.86,67.0101 -5.13,32.14 3.02,60.24 25.64,83.2 12.58,12.76 27.71,21.27 44.13,27.5 31.7901,12.06 64.8401,15.51 96.2001,15.75" /><path
         id="path42-7"
         style="fill:#231f20;fill-opacity:1;fill-rule:nonzero;stroke:none;stroke-width:0.99999994"
         d="m 4302.0754,1417.5223 c -0.5498,-4.09 -0.84,-9.71 -2.13,-15.07 -12.33,-51.07 -42.2601,-87.68 -86.1801,-112.48 -5.13,-2.9 -11.07,-4.61 -16.83,-5.89 -23.9199,-5.3301 -38.2899,9.68 -33.5499,34.65 3.5899,18.91 13.2499,34.34 25.77,47.95 28.6299,31.13 63.9799,50.9 102.63,64.95 1.1199,0.41 2.2699,0.7299 3.4299,1.02 3.5901,0.89 5.73,-0.7401 6.22,-4.4 0.4103,-3.05 0.39,-6.16 0.6398,-10.73 z m 105.2199,62.01 c -29.03,-1.01 -55.67,-3.88 -81.66,-11.24 -6.23,-1.77 -9.89,-1.02 -12.9,5.33 -15.9999,33.67 -43.4499,53.46 -75.9699,66.78 -43.6101,17.85 -89.2601,21.46 -135.3401,18.55 -160.7999,-10.19 -307.24,-64.49 -440.44,-158.1 -37.0599,-26.04 -71.2099,-56.12 -104.8899,-86.67 -7.6,-6.89 -14.0601,-15.15 -20.79,-23.01 -1.84,-2.14 -4.63,-5.3401 -2.5401,-8.0701 2.8301,-3.7099 5.0301,0.69 7.0401,2.2001 27.02,20.35 53.4699,41.57 81,61.14 101.4999,72.15 209.12,130.83 329.31,162.12 65.16,16.97 130.9299,26.34 198.1399,22.16 32.36,-2 63.66,-9.4 93.5,-22.64 19.54,-8.68 36.3801,-21.18 47.5401,-40.65 4.2,-7.31 3.78,-9.41 -3.75,-12.47 -21.1301,-8.6 -41.49,-18.77 -60.7001,-31.37 -20.26,-13.29 -39.0799,-28.41 -54.91,-47.26 -11.8899,-14.18 -21.2199,-29.83 -26.0199,-48.22 -1.9101,-7.3 -2.6501,-14.64 -2.3001,-22.09 1.0401,-22.36 16.11,-39.97 37.32,-43.3801 10.71,-1.7199 21.3801,-0.99 31.81,2.4 8.58,2.7801 16.71,6.6201 24.26,11.67 32.85,21.9601 58.12,51.1901 75.37,87.5801 9.6,20.26 14.52,41.96 13.74,64.75 -0.3502,10.15 0.4298,12.39 11.28,14.57 49.1801,9.86 98.25,10.2 147.3101,-0.36 11.1,-2.39 21.6499,-6.69 31.95,-11.7 34.0399,-16.58 41.01,-47.34 37.17,-75.03 -6.54,-47.18 -46.68,-87.6401 -92.0001,-93.6 -14.0499,-1.8401 -27.3999,0.85 -39.69,7.9699 -20.12,11.6301 -20.76,34.6901 -1.49,47.7701 2.97,2.01 6.27,3.62 9.6,4.91 6.75,2.63 8.73,1.38 10.8401,-6.19 4.23,-15.2 16.3599,-19.83 28.56,-10.9 9.3699,6.87 14.2599,18.71 11.9899,29.08 -2.31,10.54 -10.99,17.51 -23.77,19.1 -27.89,3.48 -63.1899,-19.94 -71.93,-47.7 -8.0299,-25.5101 1.5401,-47.5001 25.41,-57.5201 12.9,-5.4099 26.4,-7.5499 40.3001,-5.64 33.4599,4.59 62.85,18.54 87.76,42.27 19.05,18.1401 31.61,40.3701 35.85,67.0101 5.1399,32.14 -3,60.24 -25.62,83.2 -12.58,12.76 -27.72,21.27 -44.13,27.5 -31.8001,12.06 -64.8501,15.51 -96.2101,15.75" /><path
         id="path82-6"
         style="fill:#231f20;fill-opacity:1;fill-rule:nonzero;stroke:none;stroke-width:0.99999994"
         d="m 2755.5354,1705.6223 c 36.64,-0.28 76.31,5.93 115.55,16.1 55.8,14.45 110.07,33.78 165.08,50.72 87.12,26.83 174.86,50.57 266.87,53.06 37.3099,1 73.47,-3.98 108.4399,-17.33 5.4201,-2.06 10.23,-7.26 17.0001,-4.46 -3.1701,5.2 -8.77,7.35 -13.54,10.42 -10.68,6.84 -21.9701,12.66 -33.8,17.27 -34.08,13.29 -69.51,20.56 -105.94,23 -46.92,3.15 -93.18,-2.03 -139.12,-11.21 -53.82,-10.75 -105.73,-27.86 -157.15,-46.69 -59.48,-21.77 -118.78,-44.23 -180.75,-58.15 -60.98,-13.7 -121.25,-11.53 -180.19,10.73 -13.5,5.09 -26.3601,11.55 -38.9501,18.55 -0.89,0.5 -2.57,1.04 -3,0.63 -1.76,-1.7 0.12,-3.05 1.14,-3.94 23.67,-20.83 50.5201,-36.13 80.6101,-45.62 30.52,-9.62 61.98,-12.64 97.75,-13.08 z m -256.5001,190.15 c -2.75,37.57 10.39,69.18 37.27,94.81 24.83,23.67 53.93,39.59 89.0101,41.35 36.18,1.8 68.52,-9.05 94.89,-34.05 24.74,-23.45 42.64,-51.33 48.06,-85.91 0.72,-4.55 1.99,-8.9 4.67,-12.87 28.04,-41.49 70.03,-62.2 122.23,-53.31 11.96,2.04 23.41,5.88 34.43,11.11 28.7,13.64 43.04,37.8 47.45,67.81 4.58,31.13 -14.14,64.38 -43.28,80.42 -11.22,6.18 -23.27,10.02 -36.11,10.99 -30.73,2.31 -59.32,-18.71 -66.86,-48.55 -6.77,-26.83 12.12,-49.24 30.04,-52.68 10.23,-1.96 18.14,1.57 24.29,9.44 4.6,5.87 2.59,12.46 -4.47,15.22 -2.11,0.83 -4.63,0.5799 -6.74,1.42 -8.37,3.35 -9.83,11.72 -3.23,17.78 7.75,7.11 19.22,7.81 28.83,1.76 17.71,-11.15 23.31,-37.86 11.08,-54.92 -10.13,-14.14 -24.24,-21.22 -41.72,-19.92 -44.99,3.35 -73.25,53.55 -55.17,89.6 7.05,14.06 14.94,27.08 26.29,38.16 22.23,21.72 48.19,27.8 77.98,20.51 45.43,-11.12 75.54,-47.22 77.89,-94.04 0.72,-14.4 0.65,-28.74 -3.01,-42.93 -6.91,-26.82 -22.54,-46.79 -47.49,-58.26 -54.2,-24.92 -121.4,-22.5 -169.02,31.27 -1.53,1.72 -2.84,3.66 -4.47,5.27 -2.81,2.79 -4.68,2.03 -5.83,-1.7 -1.02,-3.29 -2.32,-6.51 -3.57,-9.73 -21.23,-54.9 -97.12,-76.01 -146.77,-36.99 -28.9401,22.75 -27.0401,55.67 -18.1401,76.51 15.5301,36.37 66.0301,41.92 89.7801,10.21 14.11,-18.83 7.16,-46.58 -13.87,-55.43 -11.03,-4.64 -22.73,-2.15 -29.93,6.37 -6.67,7.89 -3.99,17.09 5.97,20.23 1.62,0.5199 3.42,0.4299 5.11,0.78 7.95,1.64 10.4,6.33 6.75,13.05 -2.61,4.82 -6.6,7.83 -12.04,8.97 -13.89,2.89 -26.69,-4.6 -31.1,-18.27 -8.49,-26.3 1.35,-48.87 26.82,-59.47 53.16,-22.13 107.26,19.67 106.78,67.76 -0.21,21.36 -4.81,41.05 -16.92,58.8 -14.9,21.83 -33.85,39.37 -57.13,51.7 -29.72,15.75 -60.48,15.12 -89.5601,-0.48 -28.02,-15.04 -49.55,-37.73 -62.51,-67.19 -20.32,-46.18 -3.13,-106.94 39.03,-139.69 22.09,-17.15 47.0101,-29.04 73.5501,-37.49 52.27,-16.64 105.33,-18.26 158.69,-6.4 48.44,10.78 95.25,27.04 141.81,44.02 43.81,16 87.18,33.24 132.02,46.34 49.49,14.48 100.01,22.6 151.46,24.27 46.9,1.53 93.22,-3.13 138.31,-17.04 18.27,-5.63 35.45,-13.63 51.59,-23.87 25.4299,-16.13 48.3,-35.44 69.91,-56.27 4.95,-4.77 9.1899,-10.32 13.43,-15.77 2.38,-3.06 6.3199,-7.82 3.9499,-10.41 -4.0999,-4.47 -6.69,2.04 -9.3,4.1 -37.4199,29.56 -79.1599,48.98 -126.7399,55.14 -24.74,3.21 -49.46,2.33 -74.18,0.18 -73.33,-6.38 -143.82,-25.74 -213.99,-46.7 -71.74,-21.43 -143.6,-42.45 -216.41,-60.02 -40.51,-9.76 -81.56,-15.14 -123.37,-11.77 -33.46,2.69 -66.14,9.09 -97.74,20.65 -38.2901,14.01 -69.9201,37.55 -96.1101,68.38 -25.8,30.37 -39.84,65.72 -41.92,105.66 -0.21,4.04 -0.44,8.06 -0.67,12.09" /><path
         id="path84-1"
         style="fill:#231f20;fill-opacity:1;fill-rule:nonzero;stroke:none;stroke-width:0.99999994"
         d="m 4317.8753,1705.6223 c -36.64,-0.28 -76.3099,5.93 -115.54,16.1 -55.8,14.45 -110.07,33.78 -165.09,50.72 -87.1099,26.83 -174.8599,50.57 -266.8699,53.06 -37.3001,1 -73.46,-3.98 -108.4301,-17.33 -5.4199,-2.06 -10.2399,-7.26 -17.01,-4.46 3.18,5.2 8.7701,7.35 13.5501,10.42 10.68,6.84 21.9699,12.66 33.8,17.27 34.0699,13.29 69.51,20.56 105.94,23 46.91,3.15 93.17,-2.03 139.1199,-11.21 53.8101,-10.75 105.7301,-27.86 157.14,-46.69 59.49,-21.77 118.78,-44.23 180.76,-58.15 60.9701,-13.7 121.25,-11.53 180.1901,10.73 13.4899,5.09 26.3499,11.55 38.9499,18.55 0.8901,0.5 2.5701,1.04 3,0.63 1.75,-1.7 -0.12,-3.05 -1.14,-3.94 -23.6799,-20.83 -50.52,-36.13 -80.61,-45.62 -30.53,-9.62 -61.9899,-12.64 -97.76,-13.08 z m 256.5101,190.15 c 2.7499,37.57 -10.3901,69.18 -37.2701,94.81 -24.8299,23.67 -53.9299,39.59 -89.01,41.35 -36.18,1.8 -68.53,-9.05 -94.89,-34.05 -24.7399,-23.45 -42.64,-51.33 -48.06,-85.91 -0.72,-4.55 -1.99,-8.9 -4.6699,-12.87 -28.05,-41.49 -70.0401,-62.2 -122.2401,-53.31 -11.9499,2.04 -23.4,5.88 -34.4199,11.11 -28.71,13.64 -43.05,37.8 -47.46,67.81 -4.5701,31.13 14.1499,64.38 43.2799,80.42 11.2301,6.18 23.28,10.02 36.11,10.99 30.7401,2.31 59.3301,-18.71 66.8601,-48.55 6.78,-26.83 -12.12,-49.24 -30.03,-52.68 -10.23,-1.96 -18.1401,1.57 -24.3,9.44 -4.6001,5.87 -2.58,12.46 4.4799,15.22 2.11,0.83 4.62,0.5799 6.73,1.42 8.37,3.35 9.83,11.72 3.24,17.78 -7.7599,7.11 -19.23,7.81 -28.84,1.76 -17.7099,-11.15 -23.31,-37.86 -11.0799,-54.92 10.14,-14.14 24.24,-21.22 41.7199,-19.92 44.99,3.35 73.2701,53.55 55.1801,89.6 -7.05,14.06 -14.9501,27.08 -26.2901,38.16 -22.24,21.72 -48.19,27.8 -77.9899,20.51 -45.4301,-11.12 -75.54,-47.22 -77.88,-94.04 -0.72,-14.4 -0.6503,-28.74 3.0099,-42.93 6.9,-26.82 22.54,-46.79 47.49,-58.26 54.2001,-24.92 121.4001,-22.5 169.0101,31.27 1.5399,1.72 2.8399,3.66 4.4799,5.27 2.8101,2.79 4.6701,2.03 5.83,-1.7 1.02,-3.29 2.3201,-6.51 3.57,-9.73 21.2201,-54.9 97.1201,-76.01 146.7701,-36.99 28.9299,22.75 27.03,55.67 18.1299,76.51 -15.53,36.37 -66.02,41.92 -89.7699,10.21 -14.1101,-18.83 -7.17,-46.58 13.86,-55.43 11.04,-4.64 22.7299,-2.15 29.94,6.37 6.6699,7.89 3.9799,17.09 -5.9801,20.23 -1.62,0.5199 -3.42,0.4299 -5.1,0.78 -7.96,1.64 -10.3999,6.33 -6.76,13.05 2.62,4.82 6.6,7.83 12.04,8.97 13.9001,2.89 26.69,-4.6 31.11,-18.27 8.48,-26.3 -1.35,-48.87 -26.82,-59.47 -53.16,-22.13 -107.26,19.67 -106.7899,67.76 0.2197,21.36 4.8199,41.05 16.9299,58.8 14.89,21.83 33.85,39.37 57.13,51.7 29.7101,15.75 60.48,15.12 89.5601,-0.48 28.02,-15.04 49.5499,-37.73 62.5099,-67.19 20.3201,-46.18 3.12,-106.94 -39.0399,-139.69 -22.09,-17.15 -47.0101,-29.04 -73.54,-37.49 -52.2801,-16.64 -105.33,-18.26 -158.6901,-6.4 -48.45,10.78 -95.2599,27.04 -141.81,44.02 -43.82,16 -87.1899,33.24 -132.0199,46.34 -49.49,14.48 -100.02,22.6 -151.47,24.27 -46.9001,1.53 -93.2201,-3.13 -138.3101,-17.04 -18.27,-5.63 -35.4399,-13.63 -51.5899,-23.87 -25.43,-16.13 -48.29,-35.44 -69.9101,-56.27 -4.9399,-4.77 -9.18,-10.32 -13.4199,-15.77 -2.3901,-3.06 -6.33,-7.82 -3.9501,-10.41 4.0901,-4.47 6.69,2.04 9.2901,4.1 37.43,29.56 79.16,48.98 126.75,55.14 24.74,3.21 49.46,2.33 74.1699,0.18 73.3301,-6.38 143.8301,-25.74 214.0001,-46.7 71.7299,-21.43 143.5999,-42.45 216.4,-60.02 40.5199,-9.76 81.57,-15.14 123.3799,-11.77 33.45,2.69 66.1301,9.09 97.74,20.65 38.2901,14.01 69.9201,37.55 96.1001,68.38 25.8,30.37 39.84,65.72 41.92,105.66 0.21,4.04 0.45,8.06 0.6802,12.09" /><path
         id="path86-3"
         style="fill:#231f20;fill-opacity:1;fill-rule:nonzero;stroke:none;stroke-width:0.99999994"
         d="m 3544.1754,1785.1023 c -0.3203,6.46 -6.57,13.38 -11.52,12.74 -5.25,-0.67 -10.68,-7.05 -10.2401,-11.98 0.6503,-6.99 6.45,-13.43 11.43,-12.67 5.5001,0.84 10.59,6.71 10.3301,11.91 z m 18.49,-1.74 c -0.81,-11.8 -4.89,-21.24 -15.25,-26.08 -10.9001,-5.08 -21.4901,-2.78 -30.65,4.78 -8.92,7.36 -10.6,17.31 -8.95,28.18 0.09,0.56 0.33,1.1 0.5002,1.64 4.2201,14.02 13.9101,23.2 24.6501,23.37 11.9199,0.1899 24.3699,-10.44 28.1499,-24.16 0.7601,-2.74 1.14,-5.6 1.5501,-7.73" /><path
         id="path150-2"
         style="fill:#231f20;fill-opacity:1;fill-rule:nonzero;stroke:none;stroke-width:0.99999994"
         d="m 3544.8454,796.98231 c -1.75,0.3802 -5.9001,1.0399 -9.9201,2.2 -11.0199,3.21 -18.45,10.02 -20.1099,22.17 -1.63,11.8899 4.1499,23.99 14.5899,29.93 8.5401,4.86 17.8601,6.5299 27.45,4.7899 8.2401,-1.4899 14.2101,-6.1699 17.1501,-14.73 3.8199,-11.19 5.1699,-22.0899 -2.2101,-32.28 -6.0399,-8.3299 -14.31,-12.3799 -26.9499,-12.0799" /><path
         id="path152-1"
         style="fill:#231f20;fill-opacity:1;fill-rule:nonzero;stroke:none;stroke-width:0.99999994"
         d="m 3366.5154,900.32221 c 0.76,0.052 2.37,-0.03 3.9,0.3098 11.6899,2.6299 21.45,8.9299 30.01,17.22 1.83,1.78 3.3099,4.35 4.05,6.84 2.36,7.9 -4.21,16.09 -11.6301,14.86 -13.9699,-2.32 -30.2899,-20.7 -31.0899,-35.22 -0.1403,-2.4 1.4199,-3.9 4.76,-4.0101 z m -710.31,-23.3199 c 0.28,-10.62 6.33,-21.3801 15.27,-27.73 3.57,-2.5301 6.25,-1.79 6.71,2.53 2.5,23.6499 16.79,38.9 34.55,51.78 1.29,0.93 2.82,1.59 3.93,2.69 0.62,0.6202 1.01,2.02 0.77,2.85 -0.2001,0.7297 -1.38,1.56 -2.2,1.66 -17.44,2.12 -33.6,-1.3101 -47.94,-12.09 -7.31,-5.49 -10.75,-13.08 -11.09,-21.69 z m 829.6999,67.11 c -0.69,28.8399 -13.53,50.84 -37.6899,64.91999 -28.89,16.83 -59.2701,20.87 -91.1001,7.7199 -27.6199,-11.4099 -45.4899,-36.84989 -45.63,-67.40999 -0.1,-19.0599 9.4901,-32.5599 24.4401,-42.6399 3.23,-2.1801 5.76,-1.7001 7.05,2.66 3.2499,10.93 7.8699,21.19 15.03,30.0799 8.13,10.1001 18.26,16.11 31.46,15.69 21.2599,-0.6697 33.13,-20.5699 23.46,-39.96 -7.16,-14.3799 -19.23,-22.5499 -34.35,-26.1199 -4.0901,-0.9701 -8.36,-1.1 -12.5201,-1.7801 -6.7599,-1.0999 -7.8399,-2.5299 -6.7899,-9.69 1.5,-10.2099 4.77,-19.8999 9.02,-29.2399 5.01,-11.0201 6.58,-12.1301 18.25,-9.77 43.52,8.82 74.16,34.4199 92.3799,75.66 4.1501,9.39 6.5201,19.3899 6.99,29.88 z m -776.0499,124.41999 c 67.08,-0.8001 120.81,-13.75 173.03,-33.8901 57.4,-22.1299 112.49,-49.43989 166.71,-78.68989 43.42,-23.43 86.13,-48.3101 130.65,-69.57 32.07,-15.3101 64.29,-30.1601 98.7799,-39.14 20.5401,-5.34 41.34,-8.6601 62.4,-10.63 1.05,-0.1 2.1,-0.21 3.1601,-0.2303 5.34,-0.1 6.76,1.72 5.19,6.7101 -0.6503,2.0599 -1.4501,4.0699 -2.24,6.0699 -3.97,10.12 -6.84,20.5701 -6.49,31.53 0.2602,7.66 -2.78,11.74 -9.6701,14.59 -14.37,5.9201 -24.1899,16.91 -30.57,31.31 -11.52,25.99 -5.9599,49.5801 9.69,71.6001 7.6001,10.68989 17.8101,18.42989 29.3901,24.14999 32.6499,16.12 66.45,20.2699 101.6199,9.9399 43.1801,-12.68 78.5301,-57.26999 69.7301,-107.41999 -2.0801,-11.8699 -6.3,-22.89 -12.05,-33.2899 -19.9701,-36.1001 -49.09,-60.2801 -88.63,-70.7001 -5.1,-1.35 -10.2401,-2.57 -15.29,-4.07 -2.61,-0.7699 -3.1,-3.3199 -1.6701,-5.0599 2.6901,-3.2901 5.7401,-6.3801 9.06,-8.9801 27.06,-21.24 57.5601,-33.78 91.53,-36.99 9.45,-0.8899 19.0001,-0.63 28.4801,-1.14 4.18,-0.2302 8.38,-0.85 12.48,-1.69 2.68,-0.5602 5.1,-2.34 5.02,-5.42 -0.08,-2.88 -2.26,-4.93 -4.84,-5.7799 -3.4901,-1.1601 -7.1,-2.25 -10.7201,-2.58 -59.3599,-5.43 -110.2699,13.23 -152.2099,56.7199 -4.6301,4.8101 -8.69,8.5001 -16.0001,8.45 -56.0899,-0.36 -108.1799,16.5801 -158.7899,39.49 -43.01,19.4801 -84.43,42.17 -125.31,65.93 -60.23,35.01 -122.46,65.8 -186.83,91.94999 -44.82,18.21 -91.02,31.3801 -139.12,36.58 -53.42,5.77 -104.08,-4.2699 -152.0101,-28.86 -15.24,-7.81 -28.52,-18.42 -40.41,-30.94989 -31.5,-33.21 -42.16,-72.7301 -34,-117.8601 3.37,-18.69 9.34,-36.62 17.25,-53.7999 9.57,-20.79 24.2,-36.6801 44.92,-46.0301 39.5501,-17.8699 79.5301,-22.06 119.1101,-0.81 33.79,18.14 51.47,47.0201 50.72,86.7401 -0.25,12.8799 -4.92,24.21 -12.19,34.5399 -2.52,3.57 -5.71,4.74 -9.63,2.98 -13.72,-6.16 -26.08,-14.2 -35.15,-26.8 -4.55,-6.32 -6.86,-13.3599 -6.75,-21.18 0.04,-3.23 0.6999,-6.47 0.69,-9.69 -0.01,-6.99 -3.73,-11.1999 -10.54,-11.48 -6.42,-0.27 -12.49,1.5101 -18.28,4.44 -19.21,9.7301 -32.52,31.74 -30.43,52.85 2.19,22.09 14.82,36.57 34.94,43.89 22.46,8.17 44.63,7.81 65.57,-5.09 5.39,-3.3199 10.21,-4.33 16.33,-1.9999 38.2,14.5299 77.72,13.9299 117.32,9.2499 42.26,-5 82.56,-17.54 121.26,-35.6199 37.96,-17.7401 75.19,-36.9401 110.95,-59.01 4.85,-2.9901 11.79,-4.3401 12.68,-12 -6.08,-0.3803 -10.87,3.3099 -16.01,5.6199 -27.54,12.37 -54.82,25.38 -82.47,37.5 -59.72,26.17 -122.1,41.4501 -186.89,46.15 -21.75,1.58 -43.27,-0.2797 -64.27,-6.61 -5.6,-1.6899 -6.05,-2.97 -3.66,-7.8699 0.24,-0.4898 0.51,-0.96 0.81,-1.4001 23.96,-34.89 14.5,-90.99 -21.96,-123.09 -21.48,-18.9099 -46.64,-29.69 -74.55,-32.7399 -36.06,-3.9401 -68.9501,6.84 -99.5201,25.77 -11.92,7.38 -21.65,17.5399 -29.14,29.4199 -24.65,39.03 -36.25,81.41 -28.97,128.0501 4.82,30.8899 19.27,56.9499 39.6,79.81989 28.44,31.99 64.2901,50.0901 105.1801,58.92 24.42,5.26 49.05,7.51 63.01,7.2" /><path
         id="path154-5"
         style="fill:#231f20;fill-opacity:1;fill-rule:nonzero;stroke:none;stroke-width:0.99999994"
         d="m 3234.2654,760.36231 c -4.39,-0.12 -8.3,1.2099 -11.57,4.28 -6.95,6.5299 -5.21,17.3599 3.41,21.33 8.37,3.8599 20.62,-2 23.08,-11.07 0.9199,-3.4001 -0.1298,-6.3701 -2.31,-8.96 -3.31,-3.94 -7.61,-5.6001 -12.61,-5.58" /><path
         id="path156-9"
         style="fill:#231f20;fill-opacity:1;fill-rule:nonzero;stroke:none;stroke-width:0.99999994"
         d="m 3161.9254,799.45231 c -0.18,-2.31 -1.9,-4.77 -4.96,-6.37 -8.61,-4.5 -21.94,1.41 -24.35,10.83 -1.24,4.8199 0.72,10.47 4.77,12.6199 5.63,3 11.17,2.07 16.4,-1.3099 5.58,-3.6101 8.6,-9.02 8.14,-15.77" /><path
         id="path158-9"
         style="fill:#231f20;fill-opacity:1;fill-rule:nonzero;stroke:none;stroke-width:0.99999994"
         d="m 3193.5654,775.79221 c -4.23,0.21 -8.25,1.0001 -11.7,3.7601 -4.5,3.5899 -6.28,9.16 -4.45,14.1499 1.85,5.07 6.64,7.9901 12.42,7.6101 4.36,-0.3 7.95,-2.2401 11.07,-5.25 4.66,-4.5 6.46,-9.97 4.53,-14.2 -2.38,-5.19 -7.22,-5.4701 -11.87,-6.0701" /><path
         id="path160-1"
         style="fill:#231f20;fill-opacity:1;fill-rule:nonzero;stroke:none;stroke-width:0.99999994"
         d="m 3710.9953,900.32221 c -0.75,0.052 -2.37,-0.03 -3.9,0.3098 -11.6899,2.6299 -21.4399,8.9299 -30.0099,17.22 -1.83,1.78 -3.3201,4.35 -4.05,6.84 -2.3601,7.9 4.2099,16.09 11.63,14.86 13.9699,-2.32 30.2899,-20.7 31.09,-35.22 0.1297,-2.4 -1.42,-3.9 -4.7601,-4.0101 z m 710.31,-23.3199 c -0.2797,-10.62 -6.33,-21.3801 -15.27,-27.73 -3.57,-2.5301 -6.2499,-1.79 -6.71,2.53 -2.5,23.6499 -16.7899,38.9 -34.5499,51.78 -1.29,0.93 -2.8101,1.59 -3.93,2.69 -0.6203,0.6202 -1.0101,2.02 -0.78,2.85 0.2197,0.7297 1.3899,1.56 2.2099,1.66 17.45,2.12 33.6,-1.3101 47.94,-12.09 7.31,-5.49 10.76,-13.08 11.09,-21.69 z m -829.71,67.11 c 0.6998,28.8399 13.5501,50.84 37.7001,64.91999 28.89,16.83 59.27,20.87 91.1,7.7199 27.6199,-11.4099 45.49,-36.84989 45.64,-67.40999 0.09,-19.0599 -9.5001,-32.5599 -24.46,-42.6399 -3.2201,-2.1801 -5.75,-1.7001 -7.04,2.66 -3.25,10.93 -7.8801,21.19 -15.03,30.0799 -8.13,10.1001 -18.2601,16.11 -31.4601,15.69 -21.27,-0.6697 -33.1299,-20.5699 -23.4699,-39.96 7.17,-14.3799 19.2399,-22.5499 34.3599,-26.1199 4.0901,-0.9701 8.3601,-1.1 12.5301,-1.7801 6.75,-1.0999 7.8399,-2.5299 6.78,-9.69 -1.5,-10.2099 -4.77,-19.8999 -9.0201,-29.2399 -5.01,-11.0201 -6.5799,-12.1301 -18.24,-9.77 -43.5399,8.82 -74.1699,34.4199 -92.3899,75.66 -4.14,9.39 -6.5201,19.3899 -7.0001,29.88 z m 776.07,124.41999 c -67.08,-0.8001 -120.81,-13.75 -173.04,-33.8901 -57.39,-22.1299 -112.49,-49.43989 -166.71,-78.68989 -43.4299,-23.43 -86.1199,-48.3101 -130.65,-69.57 -32.07,-15.3101 -64.29,-30.1601 -98.7799,-39.14 -20.54,-5.34 -41.3501,-8.6601 -62.4,-10.63 -1.05,-0.1 -2.1,-0.21 -3.1601,-0.2303 -5.34,-0.1 -6.7699,1.72 -5.19,6.7101 0.6503,2.0599 1.4501,4.0699 2.2301,6.0699 3.9799,10.12 6.8599,20.5701 6.4999,31.53 -0.2602,7.66 2.7801,11.74 9.6701,14.59 14.37,5.9201 24.18,16.91 30.5599,31.31 11.5301,25.99 5.97,49.5801 -9.6799,71.6001 -7.6001,10.68989 -17.81,18.42989 -29.3801,24.14999 -32.6599,16.12 -66.4599,20.2699 -101.6199,9.9399 -43.1901,-12.68 -78.55,-57.26999 -69.7401,-107.41999 2.0801,-11.8699 6.3,-22.89 12.0501,-33.2899 19.97,-36.1001 49.08,-60.2801 88.6299,-70.7001 5.0901,-1.35 10.2401,-2.57 15.3,-4.07 2.6001,-0.7699 3.0801,-3.3199 1.6601,-5.0599 -2.69,-3.2901 -5.7401,-6.3801 -9.06,-8.9801 -27.06,-21.24 -57.56,-33.78 -91.5401,-36.99 -9.4399,-0.8899 -18.9799,-0.63 -28.47,-1.14 -4.1799,-0.2302 -8.3799,-0.85 -12.48,-1.69 -2.6799,-0.5602 -5.1,-2.34 -5.0199,-5.42 0.08,-2.88 2.2599,-4.93 4.83,-5.7799 3.5,-1.1601 7.1,-2.25 10.73,-2.58 59.3599,-5.43 110.2699,13.23 152.2099,56.7199 4.6301,4.8101 8.6901,8.5001 16.0001,8.45 56.0899,-0.36 108.18,16.5801 158.7799,39.49 43.02,19.4801 84.4401,42.17 125.3201,65.93 60.2299,35.01 122.4599,65.8 186.8299,91.94999 44.83,18.21 91.02,31.3801 139.12,36.58 53.4101,5.77 104.0801,-4.2699 152.01,-28.86 15.24,-7.81 28.5201,-18.42 40.41,-30.94989 31.5,-33.21 42.15,-72.7301 34.0001,-117.8601 -3.38,-18.69 -9.35,-36.62 -17.25,-53.7999 -9.57,-20.79 -24.2,-36.6801 -44.9201,-46.0301 -39.55,-17.8699 -79.54,-22.06 -119.11,-0.81 -33.7899,18.14 -51.47,47.0201 -50.72,86.7401 0.24,12.8799 4.91,24.21 12.2,34.5399 2.5101,3.57 5.7,4.74 9.6201,2.98 13.7199,-6.16 26.0799,-14.2 35.1499,-26.8 4.55,-6.32 6.86,-13.3599 6.75,-21.18 -0.038,-3.23 -0.69,-6.47 -0.69,-9.69 0.01,-6.99 3.7301,-11.1999 10.53,-11.48 6.4301,-0.27 12.5,1.5101 18.29,4.44 19.21,9.7301 32.5101,31.74 30.42,52.85 -2.18,22.09 -14.81,36.57 -34.9299,43.89 -22.4601,8.17 -44.6301,7.81 -65.5601,-5.09 -5.4,-3.3199 -10.2199,-4.33 -16.3399,-1.9999 -38.2101,14.5299 -77.7201,13.9299 -117.3201,9.2499 -42.26,-5 -82.5699,-17.54 -121.26,-35.6199 -37.9599,-17.7401 -75.1899,-36.9401 -110.94,-59.01 -4.86,-2.9901 -11.7999,-4.3401 -12.6999,-12 6.08,-0.3803 10.88,3.3099 16.02,5.6199 27.54,12.37 54.8199,25.38 82.47,37.5 59.7199,26.17 122.1,41.4501 186.8899,46.15 21.75,1.58 43.26,-0.2797 64.2701,-6.61 5.5999,-1.6899 6.0399,-2.97 3.6499,-7.8699 -0.2302,-0.4898 -0.5002,-0.96 -0.7999,-1.4001 -23.9601,-34.89 -14.5001,-90.99 21.96,-123.09 21.4899,-18.9099 46.6299,-29.69 74.55,-32.7399 36.0699,-3.9401 68.9499,6.84 99.5299,25.77 11.91,7.38 21.6401,17.5399 29.1401,29.4199 24.64,39.03 36.24,81.41 28.96,128.0501 -4.8201,30.8899 -19.27,56.9499 -39.6,79.81989 -28.45,31.99 -64.2901,50.0901 -105.1801,58.92 -24.4299,5.26 -49.05,7.51 -63,7.2" /><path
         id="path162-4"
         style="fill:#231f20;fill-opacity:1;fill-rule:nonzero;stroke:none;stroke-width:0.99999994"
         d="m 3843.2353,760.36231 c 4.41,-0.12 8.31,1.2099 11.58,4.28 6.9501,6.5299 5.2101,17.3599 -3.4099,21.33 -8.36,3.8599 -20.6201,-2 -23.0801,-11.07 -0.93,-3.4001 0.1298,-6.3701 2.31,-8.96 3.3201,-3.94 7.6101,-5.6001 12.6,-5.58" /><path
         id="path164-9"
         style="fill:#231f20;fill-opacity:1;fill-rule:nonzero;stroke:none;stroke-width:0.99999994"
         d="m 3915.5854,799.45231 c 0.18,-2.31 1.8999,-4.77 4.9599,-6.37 8.61,-4.5 21.9401,1.41 24.3501,10.83 1.2399,4.8199 -0.72,10.47 -4.77,12.6199 -5.64,3 -11.16,2.07 -16.4001,-1.3099 -5.58,-3.6101 -8.61,-9.02 -8.1399,-15.77" /><path
         id="path166-1"
         style="fill:#231f20;fill-opacity:1;fill-rule:nonzero;stroke:none;stroke-width:0.99999994"
         d="m 3883.9453,775.79221 c 4.23,0.21 8.25,1.0001 11.7,3.7601 4.5,3.5899 6.2801,9.16 4.4501,14.1499 -1.86,5.07 -6.6401,7.9901 -12.42,7.6101 -4.3601,-0.3 -7.95,-2.2401 -11.0801,-5.25 -4.65,-4.5 -6.45,-9.97 -4.5199,-14.2 2.3899,-5.19 7.2199,-5.4701 11.8699,-6.0701" /></g></g></svg>